<svg data-v-fde0c5aa="" xmlns="http://www.w3.org/2000/svg" viewBox="0 0 300 300" class="iconLeft"><!----><defs data-v-fde0c5aa=""><!----></defs><rect data-v-fde0c5aa="" fill="#ffffff00" x="0" y="0" width="300px" height="300px" class="logo-background-square"></rect><defs data-v-fde0c5aa=""><!----></defs><g data-v-fde0c5aa="" id="bd42937c-7d7d-48c7-9d35-ba5086aa6d76" fill="#FFFFFF" transform="matrix(2.4117507080492726,0,0,2.4117507080492726,86.20925647860369,129.00571084543924)"><path d="M5.46 4.16C2.83 4.16 0.62 6.11 0.62 8.94C0.62 11.77 2.83 13.73 5.46 13.73C6.60 13.73 7.55 13.36 8.18 12.80L8.18 10.95C7.49 11.48 6.73 11.92 5.51 11.92C3.87 11.92 2.56 10.65 2.56 8.94C2.56 7.23 3.87 5.95 5.51 5.95C6.73 5.95 7.37 6.45 8.04 6.96L8.04 5.04C7.41 4.50 6.60 4.16 5.46 4.16ZM13.07 6.44C11.06 6.44 9.38 8.04 9.38 10.09C9.38 12.13 11.06 13.73 13.07 13.73C15.08 13.73 16.78 12.13 16.78 10.09C16.78 8.04 15.08 6.44 13.07 6.44ZM13.07 8.12C14.05 8.12 14.93 8.83 14.93 10.09C14.93 11.35 14.05 12.04 13.07 12.04C12.09 12.04 11.22 11.35 11.22 10.09C11.22 8.83 12.09 8.12 13.07 8.12ZM26.51 6.44C25.55 6.44 24.83 7.04 24.28 7.78C23.86 6.89 23.02 6.44 22.05 6.44C21.12 6.44 20.58 6.96 20.15 7.48L20.15 6.62L18.42 6.62L18.42 13.52L20.15 13.52L20.15 9.02C20.52 8.53 20.97 8.13 21.55 8.13C22.33 8.13 22.85 8.59 22.85 9.52L22.86 13.52L24.60 13.52L24.60 9.08C24.98 8.56 25.39 8.13 25.99 8.13C26.77 8.13 27.30 8.59 27.30 9.52L27.32 13.52L29.05 13.52L29.05 9.28C29.05 7.40 27.92 6.44 26.51 6.44ZM39.85 13.52L42.94 4.36L40.78 4.36L39.06 10.14L37.16 4.36L35.89 4.36L33.96 10.14L32.27 4.36L30.11 4.36L33.15 13.52L34.47 13.52L36.50 7.63L38.54 13.52ZM46.88 6.44C45.10 6.44 43.67 7.81 43.67 10.12C43.67 12.41 45.10 13.73 46.76 13.73C47.78 13.73 48.56 13.10 48.97 12.36L48.97 13.52L50.71 13.52L50.71 6.62L48.97 6.62L48.97 7.40C48.45 6.82 47.63 6.44 46.88 6.44ZM47.24 8.13C47.91 8.13 48.48 8.48 48.97 9.00L48.97 9.98C48.99 11.22 48.11 11.99 47.20 11.99C46.16 11.99 45.47 11.16 45.47 10.12C45.47 9.08 46.16 8.13 47.24 8.13ZM55.34 6.62L55.34 4.61L54.46 4.61C54.02 6.02 53.25 6.86 52.36 7.18L52.36 8.07L53.61 8.07L53.61 11.50C53.61 12.88 54.47 13.73 55.70 13.73C56.49 13.73 56.98 13.45 57.33 13.11L57.33 11.73C57.01 11.92 56.68 12.04 56.19 12.04C55.63 12.04 55.34 11.66 55.34 11.05L55.34 8.07L57.26 8.07L57.26 6.62ZM62.18 6.44C60.10 6.44 58.56 8.16 58.56 10.10C58.56 12.04 60.10 13.73 62.18 13.73C63.21 13.73 63.83 13.36 64.22 13.03L64.22 11.44C63.74 11.79 63.18 12.04 62.33 12.04C61.21 12.04 60.40 11.22 60.40 10.10C60.40 8.98 61.28 8.15 62.33 8.15C63.18 8.15 63.74 8.42 64.22 8.76L64.22 7.16C63.83 6.85 63.21 6.44 62.18 6.44ZM69.59 6.44C68.66 6.44 67.92 7.04 67.50 7.60L67.50 3.68L65.76 3.68L65.76 13.52L67.50 13.52L67.50 9.15C67.89 8.60 68.44 8.13 69.06 8.13C69.84 8.13 70.31 8.59 70.31 9.52L70.33 13.52L72.06 13.52L72.06 9.28C72.06 7.40 71.00 6.44 69.59 6.44Z"></path></g><defs data-v-fde0c5aa=""><!----></defs><g data-v-fde0c5aa="" id="95aca40e-6c35-4b85-8d18-6e1896ddf15c" stroke="none" fill="#c0392b" transform="matrix(0.41314930867969474,0,0,0.41314930867969474,36.69480553056244,129.34253456601525)"><path d="M32 91v-3c0-3.931-1.927-7.396-4.857-9.586C28.292 76.903 29 75.041 29 73c0-4.963-4.037-9-9-9s-9 4.037-9 9c0 2.041.708 3.903 1.857 5.414C9.927 80.604 8 84.069 8 88v3a3 3 0 0 0 3 3h18a3 3 0 0 0 3-3zM38 88v3a3 3 0 0 0 3 3h18a3 3 0 0 0 3-3v-3c0-3.931-1.927-7.396-4.857-9.586C58.292 76.903 59 75.041 59 73c0-4.963-4.037-9-9-9s-9 4.037-9 9c0 2.041.708 3.903 1.857 5.414C39.927 80.604 38 84.069 38 88zM87.143 78.414C88.292 76.903 89 75.041 89 73c0-4.963-4.037-9-9-9s-9 4.037-9 9c0 2.041.708 3.903 1.857 5.414C69.927 80.604 68 84.069 68 88v3a3 3 0 0 0 3 3h18a3 3 0 0 0 3-3v-3c0-3.931-1.927-7.396-4.857-9.586zM89 6H11a3 3 0 0 0-3 3v48a3 3 0 0 0 3 3h78a3 3 0 0 0 3-3V9a3 3 0 0 0-3-3zM66.317 36.262L43.614 47.61c-2.426 1.213-5.28-.551-5.28-3.262V21.652c0-2.712 2.854-4.475 5.28-3.263l22.703 11.348c2.689 1.345 2.689 5.181 0 6.525z"></path></g><!----></svg>